<?xml version="1.0" encoding="UTF-8"?><svg xmlns="http://www.w3.org/2000/svg" viewBox="0 0 962.65 169.92"><defs><style>.d{fill:#fff;}.e{fill:#169d38;}</style></defs><g id="a"/><g id="b"><g id="c"><path class="d" d="M130.27,34.7l-41.12,68.35L48.04,34.7H0l75.01,126.98c6.33,10.72,21.86,10.66,28.11-.11l26.74-46.07,24.29-41.11-23.88-39.69Z"/><path class="e" d="M232.69,0l-61.3,103.04-17.24-28.65-24.29,41.11,27.5,46.43c6.31,10.66,21.74,10.65,28.04-.02L280.87,0h-48.18Z"/><g><path class="d" d="M259.06,157.67c-7.13-3.43-12.62-8.27-16.49-14.53-3.86-6.26-5.79-13.57-5.79-21.95s1.93-15.4,5.79-21.71c3.86-6.31,9.36-11.21,16.49-14.69,7.13-3.48,15.42-5.22,24.89-5.22s17.6,1.74,24.73,5.22c7.13,3.48,12.62,8.38,16.49,14.69,3.86,6.31,5.79,13.55,5.79,21.71s-1.93,15.7-5.79,21.95c-3.86,6.26-9.33,11.1-16.4,14.53-7.07,3.43-15.34,5.14-24.81,5.14s-17.77-1.71-24.89-5.14Zm40.72-20.24c3.92-4.08,5.88-9.49,5.88-16.24s-1.93-12.43-5.79-16.4c-3.86-3.97-9.17-5.96-15.92-5.96s-12.08,1.99-16,5.96c-3.92,3.97-5.88,9.44-5.88,16.4s1.98,12.16,5.96,16.24c3.97,4.08,9.28,6.12,15.91,6.12s11.92-2.04,15.83-6.12Z"/><path class="d" d="M344.84,82.01h23.83v11.26c3.15-3.81,7.56-6.72,13.22-8.73,5.66-2.01,12.08-3.02,19.26-3.02v18.77c-7.51,0-14.12,1.14-19.83,3.43s-9.66,5.77-11.83,10.45v46.19h-24.65V82.01Z"/><path class="d" d="M411.6,39.74h24.65V115.15l28.57-33.13h28.56l-33.13,38.19,37.22,40.15h-28.57l-32.65-35.26v35.26h-24.65V39.74Z"/><path class="e" d="M509.86,151.95c-8.38-7.24-12.57-17.44-12.57-30.61s4.22-23.42,12.65-30.77c8.43-7.35,19.72-11.02,33.87-11.02,12.84,0,23.07,2.4,30.69,7.18v19.42c-3.48-2.5-7.54-4.35-12.16-5.55-4.63-1.2-9.5-1.8-14.61-1.8-7.62,0-13.71,1.85-18.28,5.55-4.57,3.7-6.86,9.36-6.86,16.98s2.26,13.25,6.77,16.89c4.51,3.65,10.58,5.47,18.2,5.47,10.55,0,19.86-2.56,27.91-7.67v19.26c-8.05,5.01-18.66,7.51-31.83,7.51-14.15,0-25.41-3.62-33.79-10.85Z"/><path class="e" d="M589.19,39.74h24.65v51.25c3.7-3.81,7.89-6.67,12.57-8.57,4.68-1.9,9.68-2.86,15.02-2.86,10.66,0,18.63,2.86,23.91,8.57,5.28,5.71,7.92,13.41,7.92,23.1v49.13h-24.65v-46.36c0-10.12-4.68-15.18-14.04-15.18-4.14,0-8,1.01-11.59,3.02-3.59,2.01-6.64,4.98-9.14,8.9v49.62h-24.65V39.74Z"/><path class="e" d="M699.2,151.95c-8.6-7.24-12.89-17.38-12.89-30.44s3.84-23.18,11.51-30.69c7.67-7.51,18.63-11.26,32.89-11.26,9.36,0,17.3,1.74,23.83,5.22,6.53,3.48,11.48,8.3,14.85,14.45,3.37,6.15,5.06,13.09,5.06,20.81v9.96h-64.64c1.74,10.01,11.1,15.02,28.08,15.02,5,0,10.17-.43,15.51-1.31,5.33-.87,9.96-2.07,13.87-3.59v17.3c-3.81,1.63-8.71,2.94-14.69,3.92-5.99,.98-11.97,1.47-17.96,1.47-15.02,0-26.83-3.62-35.42-10.85Zm51.91-37.95c-.33-5.22-2.29-9.28-5.88-12.16-3.59-2.88-8.54-4.33-14.85-4.33s-11.1,1.47-14.69,4.41c-3.59,2.94-5.55,6.97-5.88,12.08h41.3Z"/><path class="e" d="M797.46,151.95c-8.38-7.24-12.57-17.44-12.57-30.61s4.22-23.42,12.65-30.77c8.43-7.35,19.72-11.02,33.87-11.02,12.84,0,23.07,2.4,30.69,7.18v19.42c-3.48-2.5-7.54-4.35-12.16-5.55-4.63-1.2-9.5-1.8-14.61-1.8-7.62,0-13.71,1.85-18.28,5.55-4.57,3.7-6.86,9.36-6.86,16.98s2.26,13.25,6.77,16.89c4.51,3.65,10.58,5.47,18.2,5.47,10.55,0,19.86-2.56,27.91-7.67v19.26c-8.05,5.01-18.66,7.51-31.83,7.51-14.15,0-25.41-3.62-33.79-10.85Z"/><path class="e" d="M876.79,39.74h24.65V115.15l28.57-33.13h28.56l-33.13,38.19,37.22,40.15h-28.57l-32.65-35.26v35.26h-24.65V39.74Z"/></g></g></g></svg>